Normalized EMG Linear Envelopes
nRows=198
nColumns=4

endheader
time	 med_gas_r	  soleus_r	 tib_ant_r	
1.87488	  0.082467	  0.081545	  0.028037	
1.93738	  0.078592	  0.096815	  0.028653	
1.99987	  0.074825	  0.107368	  0.029066	
2.06237	  0.071922	  0.113122	  0.029064	
2.12486	  0.070778	  0.117839	  0.028640	
2.18736	  0.071439	  0.125246	  0.028093	
2.24986	  0.073012	  0.135482	  0.027768	
2.31235	  0.074597	  0.143173	  0.027722	
2.37485	  0.076094	  0.141466	  0.027716	
2.43734	  0.077676	  0.131027	  0.027617	
2.49984	  0.078669	  0.120144	  0.027696	
2.56234	  0.077759	  0.115024	  0.028330	
2.62483	  0.074386	  0.115743	  0.029509	
2.68733	  0.069652	  0.119804	  0.030779	
2.74982	  0.065912	  0.124365	  0.031543	
2.81232	  0.065441	  0.126570	  0.031473	
2.87482	  0.068998	  0.124850	  0.030807	
2.93731	  0.075039	  0.120087	  0.030149	
2.99981	  0.080580	  0.114818	  0.029936	
3.0623	  0.083356	  0.110909	  0.030232	
3.1248	  0.082980	  0.108164	  0.030835	
3.1873	  0.080360	  0.105527	  0.031367	
3.24979	  0.076863	  0.103443	  0.031388	
3.31229	  0.073904	  0.104384	  0.030718	
3.37478	  0.072341	  0.110123	  0.029730	
3.43728	  0.071832	  0.118241	  0.029141	
3.49978	  0.071561	  0.122918	  0.029358	
3.56227	  0.071770	  0.120552	  0.030118	
3.62477	  0.073437	  0.113120	  0.030839	
3.68726	  0.076415	  0.104730	  0.031133	
3.74976	  0.079012	  0.097541	  0.030918	
3.81226	  0.079767	  0.092540	  0.030424	
3.87475	  0.078772	  0.090850	  0.030177	
3.93725	  0.076510	  0.092535	  0.030515	
3.99974	  0.072896	  0.096466	  0.031140	
4.06224	  0.068774	  0.101827	  0.031473	
4.12474	  0.066462	  0.107773	  0.031297	
4.18723	  0.067689	  0.111970	  0.030820	
4.24973	  0.072197	  0.111955	  0.030223	
4.31222	  0.077930	  0.107992	  0.029395	
4.37472	  0.081830	  0.102553	  0.028197	
4.43722	  0.081701	  0.097790	  0.026669	
4.49971	  0.077885	  0.095332	  0.025003	
4.56221	  0.072776	  0.097173	  0.023867	
4.6247	  0.068899	  0.105579	  0.025040	
4.6872	  0.067639	  0.122284	  0.031587	
4.7497	  0.069815	  0.145646	  0.046419	
4.81219	  0.076705	  0.167966	  0.068576	
4.87469	  0.090102	  0.178773	  0.091368	
4.93718	  0.112285	  0.174082	  0.107584	
4.99968	  0.142983	  0.165632	  0.116116	
5.06218	  0.173425	  0.179173	  0.120847	
5.12467	  0.191604	  0.235350	  0.125501	
5.18717	  0.197828	  0.329483	  0.132101	
5.24966	  0.203282	  0.430625	  0.141921	
5.31216	  0.213099	  0.498705	  0.155581	
5.37466	  0.224097	  0.508545	  0.172128	
5.43715	  0.233584	  0.466381	  0.188553	
5.49965	  0.240933	  0.405568	  0.201699	
5.56214	  0.246745	  0.364089	  0.211791	
5.62464	  0.251632	  0.356638	  0.222449	
5.68714	  0.254077	  0.361777	  0.236079	
5.74963	  0.252967	  0.344862	  0.251804	
5.81213	  0.251000	  0.297947	  0.267934	
5.87462	  0.254034	  0.246052	  0.282868	
5.93712	  0.263959	  0.212883	  0.294430	
5.99962	  0.272699	  0.198409	  0.301105	
6.06211	  0.271234	  0.194429	  0.303683	
6.12461	  0.259465	  0.200596	  0.305044	
6.1871	  0.242596	  0.214779	  0.306550	
6.2496	  0.226963	  0.224832	  0.305714	
6.3121	  0.218533	  0.222521	  0.301719	
6.37459	  0.219459	  0.215373	  0.298198	
6.43709	  0.227076	  0.215788	  0.295684	
6.49958	  0.236557	  0.229061	  0.290386	
6.56208	  0.243097	  0.257578	  0.282376	
6.62458	  0.243256	  0.297977	  0.275258	
6.68707	  0.238286	  0.329553	  0.269596	
6.74957	  0.233060	  0.331358	  0.264595	
6.81206	  0.230007	  0.313312	  0.262878	
6.87456	  0.229177	  0.305733	  0.267036	
6.93706	  0.230032	  0.322469	  0.272887	
6.99955	  0.231687	  0.352685	  0.272386	
7.06205	  0.235415	  0.378632	  0.264989	
7.12454	  0.240919	  0.392909	  0.259396	
7.18704	  0.242809	  0.405889	  0.261123	
7.24954	  0.237182	  0.428343	  0.267105	
7.31203	  0.225757	  0.449595	  0.274396	
7.37453	  0.213642	  0.455097	  0.283759	
7.43702	  0.205648	  0.449968	  0.293948	
7.49952	  0.203343	  0.446176	  0.301251	
7.56202	  0.207038	  0.450930	  0.304414	
7.62451	  0.217496	  0.471092	  0.304716	
7.68701	  0.232930	  0.503597	  0.303016	
7.7495	  0.247363	  0.526006	  0.299303	
7.812	  0.253109	  0.514247	  0.292439	
7.8745	  0.246057	  0.467542	  0.280339	
7.93699	  0.230590	  0.412465	  0.263405	
7.99949	  0.216754	  0.382330	  0.247370	
8.06198	  0.211574	  0.383542	  0.240304	
8.12448	  0.215883	  0.389347	  0.245434	
8.18698	  0.225680	  0.383271	  0.258258	
8.24947	  0.234948	  0.389663	  0.271362	
8.31197	  0.241000	  0.434097	  0.279044	
8.37446	  0.244644	  0.491132	  0.278057	
8.43696	  0.246056	  0.508751	  0.268073	
8.49946	  0.244282	  0.478966	  0.251157	
8.56195	  0.239169	  0.444029	  0.230818	
8.62445	  0.233242	  0.436199	  0.212843	
8.68694	  0.230540	  0.448200	  0.202974	
8.74944	  0.232283	  0.456262	  0.201442	
8.81194	  0.235683	  0.448610	  0.204076	
8.87443	  0.238017	  0.437859	  0.208328	
8.93693	  0.239602	  0.450923	  0.212697	
8.99942	  0.241647	  0.499485	  0.213583	
9.06192	  0.242860	  0.563156	  0.209504	
9.12442	  0.239571	  0.605626	  0.204876	
9.18691	  0.230789	  0.598026	  0.205110	
9.24941	  0.220680	  0.530984	  0.210432	
9.3119	  0.213537	  0.424417	  0.216540	
9.3744	  0.211189	  0.321820	  0.220338	
9.4369	  0.214935	  0.261055	  0.222129	
9.49939	  0.223225	  0.249927	  0.221326	
9.56189	  0.229600	  0.266441	  0.214573	
9.62438	  0.229571	  0.285289	  0.200386	
9.68688	  0.225875	  0.304035	  0.182748	
9.74938	  0.223058	  0.329006	  0.168870	
9.81187	  0.221963	  0.350306	  0.163578	
9.87437	  0.220292	  0.353714	  0.165750	
9.93686	  0.217316	  0.336593	  0.170135	
9.99936	  0.216182	  0.302432	  0.171425	
10.0619	  0.217541	  0.262907	  0.167206	
10.1244	  0.216830	  0.239985	  0.159244	
10.1868	  0.210570	  0.245868	  0.151114	
10.2493	  0.200690	  0.266743	  0.144703	
10.3118	  0.193079	  0.275737	  0.140358	
10.3743	  0.190909	  0.259911	  0.137660	
10.4368	  0.192656	  0.229504	  0.134937	
10.4993	  0.197139	  0.200835	  0.130603	
10.5618	  0.201163	  0.179029	  0.124725	
10.6243	  0.199409	  0.160153	  0.118565	
10.6868	  0.192423	  0.141709	  0.113283	
10.7493	  0.182983	  0.126303	  0.108809	
10.8118	  0.171370	  0.116914	  0.103778	
10.8743	  0.162191	  0.112084	  0.096755	
10.9368	  0.160225	  0.108126	  0.088177	
10.9993	  0.159336	  0.104148	  0.080311	
11.0618	  0.151491	  0.102566	  0.073975	
11.1243	  0.142157	  0.105949	  0.067703	
11.1868	  0.142397	  0.113908	  0.061410	
11.2493	  0.149607	  0.121999	  0.057436	
11.3118	  0.150728	  0.124642	  0.056389	
11.3743	  0.144333	  0.119984	  0.055073	
11.4368	  0.143610	  0.111228	  0.051063	
11.4993	  0.154469	  0.103431	  0.046449	
11.5618	  0.167573	  0.099555	  0.043998	
11.6243	  0.175127	  0.099198	  0.042768	
11.6868	  0.177898	  0.100054	  0.040434	
11.7492	  0.176234	  0.099869	  0.037068	
11.8117	  0.171138	  0.098051	  0.034462	
11.8742	  0.167799	  0.096651	  0.033676	
11.9367	  0.167770	  0.098718	  0.034610	
11.9992	  0.168998	  0.104793	  0.036976	
12.0617	  0.172301	  0.111590	  0.040402	
12.1242	  0.177744	  0.114611	  0.043519	
12.1867	  0.183526	  0.112425	  0.044396	
12.2492	  0.189352	  0.108081	  0.042519	
12.3117	  0.193769	  0.105605	  0.039070	
12.3742	  0.194182	  0.105774	  0.035397	
12.4367	  0.189806	  0.106333	  0.032302	
12.4992	  0.182065	  0.105728	  0.030270	
12.5617	  0.174192	  0.104903	  0.029637	
12.6242	  0.168346	  0.105532	  0.030427	
12.6867	  0.165208	  0.108039	  0.032051	
12.7492	  0.164878	  0.110901	  0.033455	
12.8117	  0.164894	  0.111559	  0.033798	
12.8742	  0.163622	  0.109087	  0.033020	
12.9367	  0.162506	  0.105319	  0.031626	
12.9992	  0.162542	  0.102594	  0.030230	
13.0617	  0.165152	  0.101732	  0.029562	
13.1242	  0.170413	  0.102724	  0.030160	
13.1867	  0.174646	  0.105636	  0.031836	
13.2492	  0.177845	  0.109553	  0.033974	
13.3116	  0.184233	  0.112019	  0.036031	
13.3741	  0.193711	  0.111230	  0.037500	
13.4366	  0.201327	  0.107923	  0.038003	
13.4991	  0.202165	  0.103794	  0.037568	
13.5616	  0.197602	  0.099217	  0.036632	
13.6241	  0.195888	  0.094325	  0.035659	
13.6866	  0.198690	  0.091229	  0.034916	
13.7491	  0.196659	  0.092352	  0.034545	
13.8116	  0.184015	  0.097016	  0.034381	
13.8741	  0.165224	  0.102121	  0.033934	
13.9366	  0.149780	  0.105838	  0.032984	
13.9991	  0.145557	  0.109453	  0.031839	
14.0616	  0.147491	  0.116025	  0.031033	
14.1241	  0.137914	  0.127511	  0.030944	
14.1866	  0.110516	  0.142788	  0.031447	
